<svg width="149" height="60" viewBox="0 0 149 60" fill="none" xmlns="http://www.w3.org/2000/svg">
<path d="M1.50024 32.9025C9.02188 22.0093 11.8363 20.7555 16.3363 17.2555C17.3363 13.2555 15.8363 6.2555 21.3363 1.7555C27.3363 4.2555 34.3363 12.7555 35.881 16.0255C41.3363 15.2555 48.8363 15.3412 54.8363 15.2555C61.2801 15.1635 72.2112 15.4678 78.8363 15.7555C87.7112 16.1409 99.0861 17.1092 104.836 17.7555C108.836 11.7555 110.836 8.7555 116.077 1.5C121.336 5.25549 122.836 9.75549 123.867 11.8676C125.876 15.9842 126.836 19.2555 127.336 22.7555C133.836 26.2555 141.974 27.9242 147.105 31.3452" stroke="#333333" stroke-width="3" stroke-linecap="round" stroke-linejoin="round"/>
<path d="M12.252 41.8666C14.1863 40.6951 16.0617 41.2178 17.8783 43.4348C19.1824 45.588 19.1126 47.7377 17.6691 49.884C17.5164 50.1262 17.2485 50.3632 16.8653 50.5953L16.6737 50.7114L16.0384 51.0213L16.0715 51.0761L20.6072 58.3179C20.8221 58.9609 20.7015 59.4206 20.2453 59.6969C19.6349 59.8421 19.2192 59.7322 18.9981 59.3673L9.73352 44.6266C9.44618 44.1521 9.57981 43.7345 10.1344 43.3736L10.8584 43.2719C11.2036 42.6887 11.6681 42.2203 12.252 41.8666ZM12.6407 45.5968L13.0725 46.4951L14.9119 49.3467L15.7943 49.0741C17.0169 48.3336 17.2691 46.9588 16.551 44.9495L16.3023 44.5389C15.3015 43.1747 14.354 42.7634 13.4599 43.305L13.0493 43.5536C12.2464 44.0399 12.1102 44.721 12.6407 45.5968Z" fill="#333333"/>
<path d="M19.908 37.7647L20.3445 37.271C20.8272 37.1004 21.2823 37.2677 21.7097 37.7728C21.9138 39.375 22.2931 40.9606 22.8476 42.5295C23.1248 43.3139 23.6582 44.0871 24.4478 44.8488L24.6288 44.7849C25.2121 44.5787 25.0922 42.0304 24.269 37.1399C24.4653 36.799 24.6942 36.5824 24.9557 36.49C25.5793 36.2696 26.282 37.2657 27.0639 39.4783C28.1854 41.8197 28.9071 42.9336 29.229 42.8199L29.6176 42.4789C30.2791 42.494 30.6809 42.7027 30.8231 43.105C30.7311 43.9973 30.3633 44.5572 29.7196 44.7846C28.9955 45.0405 28.0457 44.5616 26.8701 43.348C26.6626 45.3219 26.1465 46.4546 25.3219 46.746C24.0949 47.1796 22.7887 46.2044 21.4032 43.8205L20.9715 42.887L20.8649 42.5853C20.2962 40.9761 19.9773 39.3693 19.908 37.7647Z" fill="#333333"/>
<path d="M33.5839 32.4463C35.388 32.2106 36.4608 32.8852 36.8021 34.4702L36.9522 34.8634L37.9406 39.757C38.0619 40.3201 38.5491 41.0117 39.4022 41.8318L39.4156 41.8943C39.379 42.5351 39.1418 42.9026 38.7038 42.9969C37.294 42.7331 36.4005 41.7253 36.0232 39.9735L35.9356 39.5668L35.8283 39.5245L35.8952 39.3791L35.8818 39.3165L35.0459 34.9793C34.9157 34.3745 34.5899 34.1282 34.0685 34.2405L33.6931 34.3214C32.7402 34.963 32.7106 37.359 33.6043 41.5091C33.9142 42.9482 33.7042 43.7463 32.9743 43.9035C32.4112 44.0247 32.0428 43.7331 31.8693 43.0285L31.1956 39.9002C30.3243 35.8543 30.2432 33.755 30.9523 33.6023L31.2449 33.441L31.922 33.3934C32.4043 32.8968 32.9582 32.5811 33.5839 32.4463Z" fill="#333333"/>
<path d="M42.3463 30.8772L43.6239 30.5223C44.153 30.4554 44.4908 30.7461 44.6372 31.3942C44.7094 31.9656 44.0683 32.4229 42.714 32.766C41.9318 33.553 41.6075 34.4755 41.7412 35.5338L41.8736 36.5815C42.591 38.8561 43.4577 39.9293 44.4736 39.801L44.7911 39.7609C45.3837 39.686 46.2018 39.0128 47.2453 37.7413L47.4358 37.7172C47.8591 37.6638 48.2352 37.9173 48.564 38.4778C48.3827 39.4254 47.5346 40.3711 46.0196 41.3151C45.7393 41.4795 45.377 41.5898 44.9325 41.646C42.7525 41.9214 41.1178 40.3862 40.0285 37.0404L39.9403 36.3419C39.6274 33.8656 40.4294 32.044 42.3463 30.8772Z" fill="#333333"/>
<path d="M50.8307 23.1144C51.427 23.0808 51.766 23.7882 51.8476 25.2366L52.5406 30.7103L52.6684 30.7031L54.2317 30.006C56.0208 29.9053 57.2103 31.6758 57.8001 35.3178C58.0079 36.353 58.1689 37.8824 58.2829 39.9059L58.4287 42.4938C58.4743 43.3031 58.1989 43.7246 57.6025 43.7582L57.4747 43.7654C56.8948 43.7126 56.5899 43.42 56.5599 42.8875L56.3907 39.8843C56.1195 35.0705 55.5009 32.4345 54.5349 31.9761L54.3432 31.9869C53.7043 32.0229 53.2909 33.0291 53.1031 35.0054L53.2038 36.7946C53.3838 39.9895 53.2076 41.602 52.6751 41.632L52.0717 41.7301C51.4753 41.7637 51.1273 40.8966 51.0277 39.1287C50.986 37.2507 51.0274 35.71 51.1519 34.5064L49.8888 24.0329C49.8576 23.4791 50.1716 23.1729 50.8307 23.1144Z" fill="#333333"/>
<path d="M64.7559 25.9168C65.7585 25.9136 66.4553 26.978 66.8462 29.1101L66.8466 29.2381C66.8482 29.7287 66.5185 30.0178 65.8574 30.1053C65.3241 30.107 64.9593 29.4468 64.763 28.1248L64.6347 28.0292L64.2507 28.0304C63.7836 28.7146 63.5518 29.6114 63.5554 30.7207L63.6566 32.3204C64.5099 32.3176 65.4372 32.0906 66.4384 31.6394C66.8437 31.6381 67.218 31.9249 67.5612 32.4998C67.564 33.3744 66.3712 33.9543 63.9828 34.2393L64.7996 39.4527C64.8011 39.9007 64.4287 40.1899 63.6824 40.3203C63.0211 40.3225 62.6871 39.2996 62.6805 37.2516L62.0637 34.5335L59.9847 34.8603C59.5367 34.8617 59.269 34.5319 59.1815 33.8708C59.1795 33.2309 60.0422 32.8227 61.7696 32.6465L61.6352 30.6629C61.9663 27.5045 63.0065 25.9224 64.7559 25.9168Z" fill="#333333"/>
<path d="M74.0916 28.5131C75.6687 28.5842 76.8093 29.8102 77.5135 32.191L77.6111 32.8681C77.5083 35.1484 76.3375 37.434 74.0987 39.7248C73.2107 40.4749 72.3298 40.8303 71.4561 40.7909C70.1773 40.7333 69.3047 39.9572 68.8382 38.4627C68.6772 37.772 68.6082 37.171 68.6312 36.6595L68.6485 36.2759C68.8003 32.9086 70.141 30.4065 72.6707 28.7694C73.1065 28.5755 73.5802 28.4901 74.0916 28.5131ZM70.5202 36.6806C70.4549 38.1298 70.7952 38.8712 71.5411 38.9048C73.0968 38.975 74.476 37.0404 75.6786 33.1013L75.706 32.4939C75.4033 31.1562 74.7617 30.4653 73.7814 30.4211C73.3978 30.4038 73.194 30.6616 73.17 31.1944C73.1536 31.5567 72.7144 31.8251 71.8523 31.9998C71.0498 33.2236 70.6057 34.7839 70.5202 36.6806Z" fill="#333333"/>
<path d="M81.9423 23.3972C82.52 23.659 82.7904 24.0132 82.7534 24.4597L82.0667 36.6365L81.742 40.5591C81.6822 41.282 81.344 41.6179 80.7274 41.5669L80.3128 41.5326C79.9513 41.2458 79.7845 40.9323 79.8127 40.5921L80.1189 36.8928L80.8771 24.2402C80.9211 23.7087 81.2762 23.4277 81.9423 23.3972Z" fill="#333333"/>
<path d="M86.1546 24.7383C86.9425 24.9944 87.3068 25.3983 87.2476 25.9498C86.9718 26.521 86.6005 26.7815 86.1338 26.7314C85.365 26.4987 85.0146 26.0642 85.0829 25.4278C85.352 24.9203 85.7092 24.6905 86.1546 24.7383ZM86.8857 29.3224C87.2251 29.3588 87.4784 29.6971 87.6457 30.3373L87.1169 32.5656L86.9565 34.061C86.7698 35.8004 86.8221 38.1125 87.1133 40.9974C86.8579 41.3776 86.4757 41.5404 85.9666 41.4858C85.0969 41.3925 84.7974 38.7856 85.0679 33.6653L85.1874 32.5517C85.4287 30.3032 85.9948 29.2268 86.8857 29.3224Z" fill="#333333"/>
<path d="M95.4658 30.5855C97.0284 30.81 98.0441 32.1412 98.513 34.5793L98.5441 35.2627C98.2196 37.5222 96.8317 39.6828 94.3803 41.7446C93.4235 42.4046 92.5121 42.6724 91.6464 42.5481C90.3794 42.3661 89.5865 41.5087 89.2679 39.9758C89.1749 39.2728 89.1648 38.6679 89.2376 38.1611L89.2922 37.781C89.7713 34.4445 91.3495 32.0849 94.0266 30.7021C94.4793 30.5516 94.959 30.5128 95.4658 30.5855ZM91.1155 38.3661C90.9093 39.802 91.1757 40.5731 91.9148 40.6792C93.4563 40.9006 95.0174 39.1097 96.5981 35.3065L96.6846 34.7046C96.5136 33.3439 95.9425 32.5937 94.9711 32.4542C94.591 32.3996 94.363 32.6363 94.2872 33.1642C94.2357 33.5232 93.7724 33.7476 92.8974 33.8374C91.9794 34.9772 91.3854 36.4867 91.1155 38.3661Z" fill="#333333"/>
<path d="M101.715 41.8931C102.155 41.9743 102.352 42.3793 102.304 43.1081C102.043 43.8192 101.608 44.1187 101 44.0065C100.58 43.9291 100.354 43.5078 100.321 42.7426C100.705 42.0757 101.169 41.7925 101.715 41.8931Z" fill="#333333"/>
<path d="M110.185 34.5442L111.506 34.6565C112.025 34.7781 112.241 35.1682 112.152 35.8267C112.021 36.3875 111.261 36.5929 109.872 36.4428C108.864 36.908 108.239 37.6599 107.996 38.6985L107.755 39.7267C107.635 42.1088 108.074 43.4166 109.071 43.6501L109.383 43.7231C109.964 43.8593 110.965 43.5132 112.387 42.6848L112.573 42.7286C112.989 42.8259 113.253 43.1945 113.366 43.8345C112.866 44.6595 111.742 45.2507 109.993 45.6079C109.673 45.6645 109.295 45.6416 108.859 45.5395C106.719 45.0384 105.722 43.03 105.866 39.5142L106.026 38.8288C106.595 36.3985 107.982 34.9703 110.185 34.5442Z" fill="#333333"/>
<path d="M122.857 36.7406C124.362 37.2152 125.149 38.6933 125.217 41.1752L125.137 41.8546C124.451 44.0317 122.731 45.939 119.978 47.5765C118.927 48.0728 117.984 48.1895 117.15 47.9266C115.929 47.5418 115.286 46.5673 115.22 45.0031C115.242 44.2943 115.33 43.6957 115.484 43.2074L115.599 42.8411C116.612 39.6264 118.552 37.5535 121.418 36.6226C121.889 36.5474 122.368 36.5867 122.857 36.7406ZM117.304 43.7139C116.868 45.0975 117.006 45.9015 117.718 46.1259C119.203 46.5941 121.034 45.0796 123.209 41.5826L123.392 41.0027C123.444 39.6322 123.002 38.7995 122.066 38.5045C121.7 38.389 121.436 38.5857 121.276 39.0943C121.167 39.4402 120.674 39.5866 119.796 39.5336C118.705 40.5096 117.874 41.903 117.304 43.7139Z" fill="#333333"/>
<path d="M129.518 40.0682C129.889 39.6567 130.313 39.5695 130.791 39.8064C131.269 40.0433 131.347 40.6775 131.026 41.709L131.141 41.7658L132.602 42.1331C133.214 42.4363 133.522 43.3035 133.526 44.7346L133.641 44.7914C135.136 43.8897 136.323 43.6567 137.202 44.0927C138.905 45.3655 139.235 47.0531 138.192 49.1555L137.752 50.1873L134.622 55.8505L134.352 56.3952C134.115 56.873 133.682 57.0033 133.051 56.7859C132.459 56.4921 132.508 55.6476 133.2 54.2524L136.117 49.2339C137.065 47.3226 137.09 46.1443 136.192 45.6989C135.675 45.443 134.434 46.3869 132.466 48.5305C130.681 51.2173 129.674 52.5039 129.445 52.3901C129.12 52.229 128.924 52.2154 128.858 52.3492C128.303 51.9789 128.159 51.5262 128.424 50.9911L130.517 47.7069C131.644 45.2894 131.997 43.9764 131.577 43.7679L131.491 43.7252C130.833 43.8515 130.239 44.4497 129.708 45.52L128.955 47.0395L126.665 51.369C126.294 51.7805 125.88 51.8725 125.421 51.645C125.019 51.446 124.927 50.9836 125.144 50.2578L126.707 46.818L128.258 44.1224C128.854 42.6321 129.274 41.2807 129.518 40.0682Z" fill="#333333"/>
</svg>
